<?xml version="1.0" encoding="utf-8"?>
<!-- Generator: Adobe Illustrator 23.0.3, SVG Export Plug-In . SVG Version: 6.00 Build 0)  -->
<svg version="1.1" id="Layer_1" xmlns="http://www.w3.org/2000/svg" xmlns:xlink="http://www.w3.org/1999/xlink" x="0px" y="0px"
	 viewBox="0 0 24 24" style="enable-background:new 0 0 24 24;" xml:space="preserve">
<style type="text/css">
	.st0{fill:#51525B;}
</style>
<path class="st0" d="M13.3,12l9.4-9.4c0.4-0.4,0.4-0.9,0-1.3c-0.4-0.4-0.9-0.4-1.3,0L12,10.7L2.6,1.3c-0.4-0.4-0.9-0.4-1.3,0
	c-0.4,0.4-0.4,0.9,0,1.3l9.4,9.4l-9.4,9.4c-0.4,0.4-0.4,0.9,0,1.3C1.5,22.9,1.7,23,1.9,23s0.5-0.1,0.7-0.3l9.4-9.4l9.4,9.4
	c0.2,0.2,0.4,0.3,0.7,0.3s0.5-0.1,0.7-0.3c0.4-0.4,0.4-0.9,0-1.3L13.3,12z"/>
</svg>
