<?xml version="1.0" encoding="utf-8"?>
<!-- Generator: Adobe Illustrator 23.0.3, SVG Export Plug-In . SVG Version: 6.00 Build 0)  -->
<svg version="1.1" id="Layer_1" xmlns="http://www.w3.org/2000/svg" xmlns:xlink="http://www.w3.org/1999/xlink" x="0px" y="0px"
	 viewBox="0 0 24 24" style="enable-background:new 0 0 24 24;" xml:space="preserve">
<style type="text/css">
	.st0{fill:#66669F;}
</style>
<g>
	<path class="st0" d="M22.7,21.4l-5.3-5.3c1.3-1.6,2.1-3.6,2.1-5.9c0-5.1-4.2-9.3-9.3-9.3C5.1,1,1,5.2,1,10.3s4.1,9.3,9.3,9.3
		c2.2,0,4.3-0.8,5.9-2.1l5.3,5.3c0.4,0.4,0.9,0.4,1.3,0C23.1,22.4,23.1,21.8,22.7,21.4z M10.3,17.7c-4.1,0-7.4-3.3-7.4-7.4
		s3.3-7.4,7.4-7.4c4.1,0,7.4,3.3,7.4,7.4S14.4,17.7,10.3,17.7z"/>
</g>
</svg>
