<?xml version="1.0" encoding="utf-8"?>
<!-- Generator: Adobe Illustrator 23.0.3, SVG Export Plug-In . SVG Version: 6.00 Build 0)  -->
<svg version="1.1" id="Layer_1" xmlns="http://www.w3.org/2000/svg" xmlns:xlink="http://www.w3.org/1999/xlink" x="0px" y="0px"
	 viewBox="0 0 100 100" style="enable-background:new 0 0 100 100;" xml:space="preserve">
<style type="text/css">
	.st0{fill:#FFE6E8;}
	.st1{fill:#F27071;}
	.st2{fill:#66669F;}
</style>
<g>
	<g>
		<path class="st0" d="M57.9,8.3H42.1c-14,0-25.4,11.4-25.4,25.4c0,7,2.8,13.3,7.3,17.8l-0.8,12.7l12.3-6.1c2.1,0.6,4.3,0.9,6.5,0.9
			h15.8c14,0,25.4-11.4,25.4-25.4C83.3,19.6,71.9,8.3,57.9,8.3z"/>
		<path class="st1" d="M65.2,26.1c-1.8-2.5-4.9-3.6-7.8-2.9c-0.1-0.5-0.2-1.1-0.3-1.6c-1.3-4-5.5-6.1-9.5-4.8
			c-2.9,1-4.9,3.6-5.2,6.5C42,23,41.5,23,40.9,23c-4.2,0-7.5,3.4-7.5,7.5c0,3.1,1.9,5.7,4.6,6.9c-0.3,0.5-0.5,1-0.7,1.5
			c-1.2,3.9,0.9,8.1,4.9,9.4c2.9,1,6.1,0,8-2.2c0.4,0.4,0.8,0.8,1.2,1.1c3.4,2.4,8.1,1.7,10.5-1.7c1.8-2.5,1.8-5.7,0.4-8.2
			c0.5-0.2,1-0.5,1.5-0.8C66.9,34.1,67.7,29.4,65.2,26.1z M50,39c-3.1,0-5.6-2.5-5.6-5.6s2.5-5.6,5.6-5.6s5.6,2.5,5.6,5.6
			S53.1,39,50,39z"/>
	</g>
	<g>
		<g>
			<path class="st2" d="M7.3,75.7c-0.5,0-0.9,0.2-1.2,0.5c-0.3,0.3-0.5,0.8-0.5,1.3c0,0.5,0.2,0.9,0.5,1.3c0.3,0.3,0.7,0.5,1.2,0.5
				c0.5,0,0.9-0.2,1.2-0.5C8.8,78.4,9,78,9,77.5c0-0.5-0.2-0.9-0.5-1.3C8.2,75.9,7.8,75.7,7.3,75.7z"/>
			<rect x="5.8" y="80.3" class="st2" width="3" height="11.2"/>
			<path class="st2" d="M22,87.1c-0.5,0.5-1.1,0.9-1.7,1.2c-1.5,0.6-3,0.5-4.2-0.2c-0.7-0.4-1.2-1-1.6-1.7c-0.4-0.7-0.6-1.5-0.6-2.3
				c0-0.8,0.2-1.6,0.6-2.3c0.4-0.7,0.9-1.2,1.6-1.6c1.2-0.7,2.8-0.8,4.3-0.1c0.6,0.3,1.2,0.7,1.7,1.3l0.2,0.2l1.8-2.3l-0.1-0.1
				c-0.7-0.7-1.6-1.3-2.5-1.7c-1-0.4-2-0.6-3-0.6c-1.4,0-2.7,0.3-3.9,1c-1.2,0.6-2.1,1.5-2.8,2.7c-0.7,1.1-1,2.4-1,3.8
				s0.3,2.6,1,3.8c0.7,1.1,1.6,2,2.7,2.7c1.2,0.7,2.4,1,3.8,1c1,0,2.1-0.2,3.1-0.7c1-0.4,1.9-1.1,2.6-1.8l0.1-0.1L22.1,87L22,87.1z"
				/>
			<path class="st2" d="M33.7,81.3c-0.8-0.7-1.9-1.1-3.4-1.1c-0.9,0-1.8,0.1-2.5,0.3c-0.7,0.2-1.5,0.6-2.3,1l-0.2,0.1l1.1,2.2
				l0.2-0.1c1.1-0.6,2.1-1,3.1-1c0.7,0,1.3,0.2,1.7,0.5c0.4,0.3,0.5,0.7,0.5,1.3v0.1H29c-1.3,0-2.4,0.3-3.1,0.9
				c-0.8,0.6-1.1,1.5-1.1,2.5c0,0.7,0.2,1.3,0.5,1.8c0.3,0.5,0.8,1,1.4,1.3c0.6,0.3,1.3,0.5,2.1,0.5c0.8,0,1.5-0.1,2.1-0.4
				c0.4-0.2,0.8-0.4,1.2-0.7v1h3l0-7.3C34.9,83,34.5,82,33.7,81.3z M31.9,87.5c-0.1,0.5-0.3,0.8-0.8,1.2c-0.5,0.3-1.1,0.5-1.8,0.5
				c-0.5,0-1-0.1-1.3-0.4c-0.3-0.2-0.4-0.5-0.4-0.9c0-0.4,0.1-0.7,0.4-0.8c0.3-0.2,0.8-0.3,1.4-0.3h2.5L31.9,87.5z"/>
			<path class="st2" d="M47.2,81.4L47.2,81.4c-0.7-0.8-1.8-1.2-3.1-1.2c-1.6,0-2.8,0.6-3.6,1.6v-1.5h-3v11.2h3V86
				c0-0.8,0.2-1.5,0.7-2.1c0.5-0.5,1.1-0.8,1.9-0.8c0.7,0,1.2,0.2,1.6,0.6c0.4,0.4,0.6,0.9,0.6,1.6v6.2h3.1v-6.9
				C48.4,83.3,48,82.2,47.2,81.4z"/>
		</g>
		<path class="st2" d="M49.7,77.2h11V79h-4.5v12.3h-1.9V79h-4.5V77.2z"/>
		<path class="st2" d="M69.3,82.1c0.8,1,1.3,2.3,1.3,4.1c0,0.3,0,0.5,0,0.6h-8.4c0.1,1,0.5,1.7,1.2,2.3c0.7,0.6,1.5,0.8,2.4,0.8
			c0.6,0,1.2-0.1,1.8-0.3c0.5-0.2,1-0.6,1.4-1l1,1.1c-0.5,0.6-1.2,1-1.9,1.3c-0.7,0.3-1.6,0.5-2.5,0.5c-1,0-2-0.2-2.8-0.7
			c-0.8-0.4-1.4-1.1-1.9-1.9C60.4,88,60.2,87,60.2,86s0.2-2,0.7-2.8c0.4-0.8,1.1-1.4,1.9-1.9c0.8-0.5,1.7-0.7,2.8-0.7
			C67.2,80.6,68.4,81.1,69.3,82.1z M68.8,85.3c-0.1-1-0.4-1.7-1-2.3c-0.6-0.6-1.4-0.8-2.3-0.8c-0.9,0-1.7,0.3-2.3,0.8
			c-0.6,0.6-1,1.3-1.1,2.3H68.8z"/>
		<path class="st2" d="M77.5,82.3c-0.7,0-1.3,0.2-1.9,0.5c-0.5,0.3-1,0.7-1.3,1.3c-0.3,0.6-0.5,1.2-0.5,2c0,0.7,0.2,1.4,0.5,2
			c0.3,0.6,0.7,1,1.2,1.3c0.5,0.3,1.1,0.5,1.8,0.5c0.7,0,1.3-0.1,1.9-0.3c0.5-0.2,1-0.6,1.4-1l1.1,1.1c-0.5,0.6-1.1,1.1-1.8,1.4
			s-1.6,0.5-2.5,0.5c-1,0-2-0.2-2.8-0.7c-0.8-0.5-1.4-1.1-1.9-1.9C72.3,88,72,87,72,86s0.2-2,0.7-2.8c0.4-0.8,1.1-1.5,1.9-1.9
			c0.8-0.5,1.7-0.7,2.8-0.7c0.9,0,1.7,0.1,2.4,0.4c0.7,0.3,1.3,0.7,1.8,1.2l-1,1.3C79.7,82.7,78.7,82.3,77.5,82.3z"/>
		<path class="st2" d="M93.4,81.7c0.7,0.7,1.1,1.7,1.1,3v6.6h-1.9v-6.1c0-0.9-0.3-1.6-0.8-2.1c-0.5-0.5-1.2-0.8-2.1-0.8
			c-1,0-1.9,0.4-2.5,1c-0.6,0.7-0.9,1.6-0.9,2.7v5.2h-1.9V76.4h1.9v6.6c0.7-1.5,2.1-2.3,4.1-2.4C91.7,80.6,92.7,81,93.4,81.7z"/>
	</g>
</g>
</svg>
